<svg width="30" height="31" viewBox="0 0 30 31" fill="none" xmlns="http://www.w3.org/2000/svg">
<path fill-rule="evenodd" clip-rule="evenodd" d="M16.25 4.47217C16.25 4.14065 16.1183 3.8227 15.8839 3.58828C15.6495 3.35386 15.3315 3.22217 15 3.22217C14.6685 3.22217 14.3505 3.35386 14.1161 3.58828C13.8817 3.8227 13.75 4.14065 13.75 4.47217V5.40967H13.0538C11.7138 5.40958 10.4242 5.92016 9.44741 6.83746C8.47066 7.75477 7.8802 9.00984 7.79626 10.3472L7.52001 14.7647C7.41467 16.449 6.84913 18.0721 5.88501 19.4572C5.6858 19.7435 5.56408 20.0765 5.53168 20.4238C5.49929 20.7711 5.55733 21.1209 5.70015 21.4391C5.84297 21.7573 6.06571 22.0332 6.34672 22.2399C6.62772 22.4465 6.95742 22.5769 7.30376 22.6184L11.5625 23.1284V24.4722C11.5625 25.3838 11.9247 26.2582 12.5693 26.9028C13.214 27.5475 14.0883 27.9097 15 27.9097C15.9117 27.9097 16.786 27.5475 17.4307 26.9028C18.0753 26.2582 18.4375 25.3838 18.4375 24.4722V23.1284L22.6963 22.6172C23.0424 22.5756 23.3719 22.4451 23.6527 22.2386C23.9335 22.032 24.1561 21.7563 24.2989 21.4382C24.4417 21.1202 24.4998 20.7706 24.4676 20.4235C24.4354 20.0764 24.3139 19.7435 24.115 19.4572C23.1508 18.0721 22.5853 16.449 22.48 14.7647L22.2038 10.3484C22.1201 9.01087 21.5298 7.75549 20.553 6.83792C19.5762 5.92035 18.2864 5.4096 16.9463 5.40967H16.25V4.47217ZM13.0538 7.28467C12.1907 7.28456 11.3601 7.61338 10.731 8.20418C10.1019 8.79497 9.72157 9.60333 9.66751 10.4647L9.39251 14.8822C9.26544 16.9084 8.5849 18.8609 7.42501 20.5272C7.41059 20.5479 7.40178 20.572 7.39943 20.5971C7.39707 20.6222 7.40126 20.6475 7.41157 20.6705C7.42189 20.6936 7.43799 20.7135 7.4583 20.7285C7.47862 20.7434 7.50246 20.7529 7.52751 20.7559L12.1988 21.3172C14.06 21.5397 15.94 21.5397 17.8013 21.3172L22.4725 20.7559C22.4976 20.7529 22.5214 20.7434 22.5417 20.7285C22.562 20.7135 22.5781 20.6936 22.5884 20.6705C22.5988 20.6475 22.6029 20.6222 22.6006 20.5971C22.5982 20.572 22.5894 20.5479 22.575 20.5272C21.4156 18.8608 20.7355 16.9083 20.6088 14.8822L20.3325 10.4647C20.2784 9.60333 19.8981 8.79497 19.269 8.20418C18.6399 7.61338 17.8093 7.28456 16.9463 7.28467H13.0538ZM15 26.0347C14.1375 26.0347 13.4375 25.3347 13.4375 24.4722V23.5347H16.5625V24.4722C16.5625 25.3347 15.8625 26.0347 15 26.0347Z" fill="#141414"/>
</svg>
