<svg width="30" height="27" viewBox="0 0 30 27" fill="none" xmlns="http://www.w3.org/2000/svg">
<rect width="30" height="26.8" rx="8" fill="white" fill-opacity="0.2"/>
<path fill-rule="evenodd" clip-rule="evenodd" d="M13.0002 20.8H16.9998C19.8087 20.8 21.2136 20.8 22.2225 20.1957C22.6579 19.9351 23.0329 19.5987 23.3259 19.2057C24 18.3013 24 17.0408 24 14.5215C24 12.0022 24 10.7418 23.3259 9.83734C23.0329 9.44431 22.6579 9.10791 22.2225 8.84739C21.5745 8.45848 20.7627 8.31952 19.5198 8.27019C18.9267 8.27019 18.4164 7.8673 18.3003 7.34519C18.2116 6.96275 17.981 6.62002 17.6477 6.37493C17.3143 6.12984 16.8985 5.99741 16.4706 6.00004H13.5294C12.6402 6.00004 11.8743 6.56326 11.6997 7.34519C11.5836 7.8673 11.0733 8.27019 10.4802 8.27019C9.2382 8.31952 8.4264 8.4593 7.7775 8.84739C7.34238 9.108 6.96775 9.44439 6.675 9.83734C6 10.7418 6 12.0014 6 14.5215C6 17.0416 6 18.3005 6.6741 19.2057C6.9657 19.5971 7.3401 19.9334 7.7775 20.1957C8.7864 20.8 10.1913 20.8 13.0002 20.8ZM15 11.1578C12.9291 11.1578 11.2497 12.6633 11.2497 14.5207C11.2497 16.3781 12.93 17.8861 15 17.8861C17.07 17.8861 18.7503 16.3797 18.7503 14.5224C18.7503 12.665 17.07 11.1578 15 11.1578ZM15 12.503C13.758 12.503 12.75 13.4066 12.75 14.5215C12.75 15.6356 13.758 16.5393 15 16.5393C16.242 16.5393 17.25 15.6356 17.25 14.5215C17.25 13.4074 16.242 12.503 15 12.503ZM19.2498 11.8304C19.2498 11.4588 19.5855 11.1578 20.0004 11.1578H20.9994C21.4134 11.1578 21.75 11.4588 21.75 11.8304C21.7481 12.0104 21.6681 12.1823 21.5275 12.3084C21.3869 12.4345 21.1973 12.5045 21.0003 12.503H20.0004C19.9028 12.5038 19.8059 12.4871 19.7154 12.4538C19.6248 12.4205 19.5423 12.3712 19.4726 12.3087C19.4029 12.2463 19.3474 12.1719 19.3091 12.0898C19.2709 12.0077 19.2507 11.9196 19.2498 11.8304Z" fill="white"/>
</svg>
