<svg width="43" height="43" viewBox="0 0 43 43" fill="none" xmlns="http://www.w3.org/2000/svg">
<g clip-path="url(#clip0_729_6738)">
<path d="M33.9417 3.6207H14.6743V11.6107H38.0567V7.73412C38.0567 5.46576 36.2107 3.6207 33.9417 3.6207Z" fill="#CED9F9"/>
<path d="M23.0352 12.8403H0.5V5.42636C0.5 2.70972 2.71068 0.5 5.42828 0.5H12.6336C13.3497 0.5 14.0396 0.650925 14.6664 0.934509C15.5418 1.32896 16.2939 1.97913 16.8213 2.8286L23.0352 12.8403Z" fill="#2E7F59"/>
<path d="M42.5 14.5001V38.3814C42.5 40.6527 40.6511 42.5 38.3789 42.5H4.62111C2.34891 42.5 0.5 40.6527 0.5 38.3814V10.3806H38.3789C40.6511 10.3806 42.5 12.2285 42.5 14.5001Z" fill="#1C4532" fill-opacity="0.9"/>
<path d="M42.5 14.5001V38.3814C42.5 40.6527 40.6511 42.5 38.3789 42.5H21.5V10.3806H38.3789C40.6511 10.3806 42.5 12.2285 42.5 14.5001Z" fill="#01543B"/>
<path d="M32.548 26.4398C32.548 32.5322 27.5919 37.4887 21.5001 37.4887C15.4083 37.4887 10.4521 32.5322 10.4521 26.4398C10.4521 20.3484 15.4083 15.3919 21.5001 15.3919C27.5919 15.3919 32.548 20.3484 32.548 26.4398Z" fill="#E7ECFC"/>
<path d="M32.5479 26.4398C32.5479 32.5322 27.5918 37.4887 21.5 37.4887V15.3919C27.5918 15.3919 32.5479 20.3484 32.5479 26.4398Z" fill="#5CA86C"/>
<path d="M25.061 26.5754C24.8306 26.7705 24.5483 26.8657 24.2685 26.8657C23.9183 26.8657 23.5703 26.7173 23.3268 26.4283L22.7304 25.7214V30.3494C22.7304 31.0288 22.1793 31.5799 21.5 31.5799C20.8207 31.5799 20.2695 31.0288 20.2695 30.3494V25.7214L19.6732 26.4283C19.2342 26.9477 18.4584 27.014 17.939 26.5754C17.4199 26.1373 17.3532 25.3612 17.7913 24.8418L20.2269 21.9544C20.5444 21.5788 21.0078 21.3629 21.5 21.3629C21.9922 21.3629 22.4555 21.5788 22.7731 21.9544L25.2087 24.8418C25.6467 25.3612 25.5801 26.1373 25.061 26.5754Z" fill="#61C453"/>
<path d="M25.061 26.5754C24.8306 26.7705 24.5483 26.8657 24.2686 26.8657C23.9183 26.8657 23.5703 26.7173 23.3268 26.4283L22.7305 25.7214V30.3494C22.7305 31.0288 22.1793 31.5799 21.5 31.5799V21.3629C21.9922 21.3629 22.4555 21.5788 22.7731 21.9544L25.2087 24.8418C25.6467 25.3612 25.5801 26.1373 25.061 26.5754Z" fill="#141414"/>
</g>
<defs>
<clipPath id="clip0_729_6738">
<rect width="42" height="42" fill="white" transform="translate(0.5 0.5)"/>
</clipPath>
</defs>
</svg>
