<svg width="16" height="16" viewBox="0 0 16 16" fill="none" xmlns="http://www.w3.org/2000/svg">
<path d="M3.8752 6.89864C3.94291 6.89864 4.01843 6.90905 4.10176 6.92989C4.1851 6.95072 4.26843 6.97937 4.35176 7.01583C4.4351 7.05228 4.51843 7.08614 4.60176 7.11739C4.6851 7.14864 4.76062 7.17989 4.82833 7.21114L4.70333 7.22676C4.66166 7.23197 4.61739 7.23458 4.57051 7.23458C4.48197 7.23458 4.40124 7.22155 4.32833 7.19551C4.25541 7.16947 4.1877 7.13562 4.1252 7.09395C4.0627 7.05228 4.0002 7.02103 3.9377 7.0002C3.8752 6.97937 3.81791 6.96374 3.76583 6.95333C3.71374 6.95333 3.66687 6.96374 3.6252 6.98458C3.58353 7.00541 3.54187 7.02885 3.5002 7.05489C3.5002 7.03405 3.48197 7.02364 3.44551 7.02364C3.48197 6.98718 3.54968 6.95853 3.64864 6.9377C3.7476 6.91687 3.82312 6.90385 3.8752 6.89864ZM4.92989 7.2502C5.14343 7.2502 5.33874 7.28666 5.51583 7.35958C5.44291 7.38562 5.36999 7.40645 5.29708 7.42208C5.22416 7.4377 5.14864 7.44812 5.07051 7.45333C4.96635 7.45333 4.8726 7.44291 4.78926 7.42208C4.8153 7.38041 4.84135 7.35437 4.86739 7.34395C4.89343 7.33353 4.91426 7.30228 4.92989 7.2502ZM8.0002 0.000200321C8.73458 0.000200321 9.4403 0.0965545 10.1174 0.289263C10.7945 0.481971 11.4299 0.7502 12.0236 1.09395C12.6174 1.4377 13.1591 1.85697 13.6486 2.35176C14.1382 2.84655 14.5549 3.38562 14.8986 3.96895C15.2424 4.55228 15.5132 5.1877 15.7111 5.8752C15.9091 6.5627 16.0054 7.27103 16.0002 8.0002C16.0002 8.73458 15.9038 9.4403 15.7111 10.1174C15.5184 10.7945 15.2502 11.4299 14.9065 12.0236C14.5627 12.6174 14.1434 13.1591 13.6486 13.6486C13.1538 14.1382 12.6148 14.5549 12.0315 14.8986C11.4481 15.2424 10.8127 15.5132 10.1252 15.7111C9.4377 15.9091 8.72937 16.0054 8.0002 16.0002C7.26583 16.0002 6.5601 15.9038 5.88301 15.7111C5.20593 15.5184 4.57051 15.2502 3.97676 14.9065C3.38301 14.5627 2.84135 14.1434 2.35176 13.6486C1.86218 13.1538 1.44551 12.6148 1.10176 12.0315C0.758013 11.4481 0.48718 10.8127 0.289263 10.1252C0.0913462 9.4377 -0.00500801 8.72937 0.000200321 8.0002C0.000200321 7.26583 0.0965545 6.5601 0.289263 5.88301C0.481971 5.20593 0.7502 4.57051 1.09395 3.97676C1.4377 3.38301 1.85697 2.84135 2.35176 2.35176C2.84655 1.86218 3.38562 1.44551 3.96895 1.10176C4.55228 0.758013 5.1877 0.48718 5.8752 0.289263C6.5627 0.0913462 7.27103 -0.00500801 8.0002 0.000200321ZM13.9533 4.33614C13.8804 4.22155 13.8075 4.11218 13.7346 4.00801C13.6617 3.90385 13.5861 3.79708 13.508 3.6877C13.4976 3.73458 13.4846 3.76843 13.469 3.78926C13.4533 3.8101 13.4429 3.85697 13.4377 3.92989C13.4377 3.97676 13.4559 4.02103 13.4924 4.0627C13.5288 4.10437 13.5757 4.14603 13.633 4.1877C13.6903 4.22937 13.7476 4.26062 13.8049 4.28145C13.8622 4.30228 13.9117 4.32051 13.9533 4.33614ZM13.4143 3.57051C13.4143 3.61218 13.4065 3.64083 13.3908 3.65645H13.4377C13.4585 3.65645 13.4742 3.65905 13.4846 3.66426L13.4143 3.57051ZM8.0002 15.0002C8.59395 15.0002 9.17468 14.9247 9.74239 14.7736C10.3101 14.6226 10.8466 14.4091 11.3518 14.133C11.857 13.857 12.3257 13.5184 12.758 13.1174C13.1903 12.7163 13.5679 12.2684 13.8908 11.7736C13.8231 11.6174 13.758 11.4585 13.6955 11.2971C13.633 11.1356 13.6018 10.969 13.6018 10.7971C13.6018 10.6096 13.6096 10.4585 13.6252 10.344C13.6408 10.2294 13.6591 10.1278 13.6799 10.0393C13.7007 9.95072 13.7111 9.8752 13.7111 9.8127C13.7111 9.7502 13.7033 9.66947 13.6877 9.57051C13.6721 9.47155 13.6278 9.36478 13.5549 9.2502C13.482 9.13562 13.3856 8.97416 13.2658 8.76583C13.271 8.72937 13.2788 8.67989 13.2893 8.61739C13.2997 8.55489 13.3101 8.48978 13.3205 8.42208C13.3309 8.35437 13.3335 8.29187 13.3283 8.23458C13.3231 8.17728 13.3101 8.1278 13.2893 8.08614C13.1538 8.07051 13.0132 8.04187 12.8674 8.0002C12.7216 7.95853 12.5913 7.89603 12.4768 7.8127L12.5236 7.77364C12.4559 7.78926 12.3882 7.8101 12.3205 7.83614C12.2528 7.86218 12.1877 7.89083 12.1252 7.92208C12.0627 7.95333 11.995 7.97416 11.9221 7.98458C11.8492 7.99499 11.7788 8.00541 11.7111 8.01583L11.5861 8.0002L11.6096 7.94551C11.5367 7.96635 11.4585 7.99239 11.3752 8.02364C11.2919 8.05489 11.2111 8.07051 11.133 8.07051C11.0809 8.07051 11.0054 8.05228 10.9065 8.01583C10.8075 7.97937 10.7085 7.9351 10.6096 7.88301C10.5106 7.83093 10.4221 7.77364 10.344 7.71114C10.2658 7.64864 10.2268 7.58874 10.2268 7.53145L10.2424 7.50801C10.2163 7.47676 10.1825 7.44812 10.1408 7.42208C10.0992 7.39603 10.0601 7.36999 10.0236 7.34395C9.98718 7.31791 9.95333 7.28926 9.92208 7.25801C9.89083 7.22676 9.8778 7.1903 9.88301 7.14864L9.96895 7.07833L9.78926 7.05489L9.72676 6.82051C9.73718 6.84655 9.76062 6.85697 9.79708 6.85176C9.83353 6.84655 9.86218 6.83614 9.88301 6.82051L9.60176 6.67208L9.79708 6.17208C9.72416 5.90124 9.70593 5.69291 9.74239 5.54708C9.77885 5.40124 9.84916 5.28145 9.95333 5.1877C10.0575 5.09395 10.1721 5.0002 10.2971 4.90645C10.4221 4.8127 10.5497 4.6851 10.6799 4.52364L10.6565 4.42989L11.1721 3.80489L11.2893 3.78926C11.4351 3.78926 11.5992 3.78405 11.7815 3.77364C11.9637 3.76322 12.1486 3.74499 12.3361 3.71895C12.5236 3.69291 12.7085 3.66687 12.8908 3.64083C13.0731 3.61478 13.2398 3.58093 13.3908 3.53926C13.2242 3.34135 13.0497 3.15385 12.8674 2.97676C12.6851 2.79968 12.4898 2.63041 12.2815 2.46895C12.2242 2.48978 12.1538 2.51843 12.0705 2.55489C11.9872 2.59135 11.9038 2.63822 11.8205 2.69551C11.7372 2.7528 11.6721 2.8153 11.6252 2.88301C11.5783 2.95072 11.5497 3.02103 11.5393 3.09395L11.5861 3.24239C11.4924 3.39343 11.3882 3.48718 11.2736 3.52364C11.1591 3.5601 11.0419 3.58093 10.9221 3.58614C10.8023 3.59135 10.6773 3.59135 10.5471 3.58614C10.4169 3.58093 10.2919 3.60437 10.1721 3.65645L10.0471 3.39083L10.1643 2.9377L10.0315 2.74239L11.383 2.32051C11.3257 2.17468 11.232 2.0653 11.1018 1.99239C10.9716 1.91947 10.8283 1.88301 10.6721 1.88301V1.80489L11.1096 1.73458C10.6252 1.49499 10.1226 1.3127 9.60176 1.1877C9.08093 1.0627 8.54708 1.0002 8.0002 1.0002C7.54708 1.0002 7.09916 1.04447 6.65645 1.13301C6.21374 1.22155 5.78666 1.34916 5.3752 1.51583C4.96374 1.68249 4.5653 1.89083 4.17989 2.14083C3.79447 2.39083 3.44291 2.67208 3.1252 2.98458C3.26062 2.98458 3.36478 3.01843 3.4377 3.08614C3.51062 3.15385 3.57833 3.22937 3.64083 3.3127C3.70333 3.39603 3.76843 3.47155 3.83614 3.53926C3.90385 3.60697 3.99499 3.64343 4.10958 3.64864L4.23458 3.55489L4.21895 3.38301L4.47676 3.01583L4.27364 2.4377C4.29968 2.42208 4.33874 2.39603 4.39083 2.35958C4.44291 2.32312 4.48718 2.30489 4.52364 2.30489C4.67989 2.30489 4.79968 2.3127 4.88301 2.32833C4.96635 2.34395 5.03926 2.3726 5.10176 2.41426C5.16426 2.45593 5.21895 2.51583 5.26583 2.59395C5.3127 2.67208 5.38562 2.77103 5.48458 2.89083L5.76583 2.67208C5.81791 2.69291 5.90124 2.72676 6.01583 2.77364C6.13041 2.82051 6.2476 2.8778 6.36739 2.94551C6.48718 3.01322 6.58874 3.08353 6.67208 3.15645C6.75541 3.22937 6.79968 3.29708 6.80489 3.35958C6.80489 3.4377 6.77624 3.5002 6.71895 3.54708C6.66166 3.59395 6.58614 3.63301 6.49239 3.66426C6.39864 3.69551 6.30228 3.71895 6.20333 3.73458C6.10437 3.7502 6.00541 3.77103 5.90645 3.79708C5.80749 3.82312 5.73197 3.84916 5.67989 3.8752C5.6278 3.90124 5.59655 3.94551 5.58614 4.00801L6.03926 4.15645C5.9351 4.24499 5.82312 4.32572 5.70333 4.39864C5.58353 4.47155 5.45853 4.53926 5.32833 4.60176L5.35958 4.73458L4.64083 5.01583V5.23458L4.58614 5.25801L4.6252 4.98458L4.59395 4.97676C4.55749 4.97676 4.53666 4.98458 4.53145 5.0002C4.52624 5.01583 4.52364 5.03405 4.52364 5.05489C4.52364 5.07572 4.52885 5.09655 4.53926 5.11739C4.54968 5.13822 4.55228 5.15385 4.54708 5.16426L4.44551 5.10958L4.46114 5.14083C4.46114 5.15645 4.46895 5.17989 4.48458 5.21114C4.5002 5.24239 4.52103 5.27103 4.54708 5.29708C4.57312 5.32312 4.59395 5.34916 4.60958 5.3752C4.6252 5.40124 4.63562 5.41426 4.64083 5.41426C4.64083 5.42989 4.63041 5.44551 4.60958 5.46114C4.58874 5.47676 4.5627 5.48718 4.53145 5.49239C4.5002 5.4976 4.47937 5.50541 4.46895 5.51583C4.45853 5.52624 4.45853 5.52885 4.46895 5.52364C4.54187 5.52364 4.55749 5.52885 4.51583 5.53926C4.47416 5.54968 4.40905 5.57572 4.32051 5.61739C4.23197 5.65905 4.15124 5.71895 4.07833 5.79708C4.00541 5.8752 3.96374 5.98978 3.95333 6.14083C3.95333 6.22937 3.95593 6.3153 3.96114 6.39864C3.96635 6.48197 3.96374 6.56791 3.95333 6.65645C3.88041 6.45853 3.77103 6.30749 3.6252 6.20333C3.47937 6.09916 3.30228 6.04708 3.09395 6.04708L2.75801 6.07833L2.92208 6.1877C2.83353 6.17728 2.74239 6.16687 2.64864 6.15645C2.55489 6.14603 2.45853 6.14343 2.35958 6.14864C2.26062 6.15385 2.17208 6.17468 2.09395 6.21114C2.01583 6.2476 1.9377 6.30228 1.85958 6.3752L1.8127 6.72676C1.8127 6.89343 1.84916 7.02885 1.92208 7.13301C1.99499 7.23718 2.1226 7.29187 2.30489 7.29708C2.46114 7.29708 2.61478 7.27364 2.76583 7.22676C2.91687 7.17989 3.0653 7.1252 3.21114 7.0627C3.16426 7.17728 3.11218 7.28666 3.05489 7.39083C2.9976 7.49499 2.95593 7.60958 2.92989 7.73458L3.03145 7.78145C3.15645 7.69812 3.27103 7.6851 3.3752 7.74239C3.47937 7.79968 3.58093 7.88301 3.67989 7.99239C3.77885 8.10176 3.88041 8.21374 3.98458 8.32833C4.08874 8.44291 4.20072 8.52624 4.32051 8.57833L4.05489 8.71895L3.42989 8.36739C3.4351 8.3778 3.4403 8.40124 3.44551 8.4377C3.45072 8.47416 3.44812 8.48197 3.4377 8.46114L3.15645 7.98458C2.98978 7.97937 2.8127 7.95333 2.6252 7.90645C2.4377 7.85958 2.2476 7.79708 2.05489 7.71895C1.86218 7.64083 1.68249 7.55489 1.51583 7.46114C1.34916 7.36739 1.19551 7.26843 1.05489 7.16426L1.0002 8.0002C1.0002 8.63562 1.08614 9.25541 1.25801 9.85958C1.42989 10.4637 1.67208 11.0315 1.98458 11.5627C2.29708 12.094 2.67989 12.5783 3.13301 13.0158C3.58614 13.4533 4.08874 13.8257 4.64083 14.133C4.61478 14.0236 4.61218 13.9143 4.63301 13.8049C4.65385 13.6955 4.67989 13.5861 4.71114 13.4768C4.74239 13.3674 4.77624 13.258 4.8127 13.1486C4.84916 13.0393 4.86739 12.9273 4.86739 12.8127C4.86739 12.646 4.84135 12.4716 4.78926 12.2893C4.73718 12.107 4.67468 11.9221 4.60176 11.7346C4.52885 11.5471 4.44812 11.3622 4.35958 11.1799C4.27103 10.9976 4.20072 10.8257 4.14864 10.6643C4.09655 10.5028 4.05489 10.3518 4.02364 10.2111C3.99239 10.0705 4.00801 9.94812 4.07051 9.84395L3.95333 9.78926C3.98458 9.71635 4.02624 9.64603 4.07833 9.57833C4.13041 9.51062 4.1851 9.44291 4.24239 9.3752C4.29968 9.30749 4.34395 9.23458 4.3752 9.15645C4.40645 9.07833 4.42468 9.0002 4.42989 8.92208C4.42989 8.86999 4.41947 8.8153 4.39864 8.75801C4.3778 8.70072 4.35958 8.64603 4.34395 8.59395L4.50801 8.63301C4.59655 8.42989 4.71635 8.29187 4.86739 8.21895C5.01843 8.14603 5.20853 8.10697 5.4377 8.10176C5.46374 8.10176 5.51843 8.11218 5.60176 8.13301C5.6851 8.15385 5.77364 8.18249 5.86739 8.21895C5.96114 8.25541 6.04968 8.28405 6.13301 8.30489C6.21635 8.32572 6.27885 8.34655 6.32051 8.36739C6.32051 8.40385 6.34135 8.42728 6.38301 8.4377C6.42468 8.44812 6.44812 8.46635 6.45333 8.49239L6.4377 8.55489C6.45333 8.5601 6.48978 8.57833 6.54708 8.60958C6.60437 8.64083 6.66687 8.67989 6.73458 8.72676C6.80228 8.77364 6.86218 8.8153 6.91426 8.85176C6.96635 8.88822 7.0028 8.91687 7.02364 8.9377C7.11739 8.9377 7.24499 8.96895 7.40645 9.03145C7.56791 9.09395 7.74499 9.17208 7.9377 9.26583C8.13041 9.35958 8.32051 9.47155 8.50801 9.60176C8.69551 9.73197 8.8726 9.86218 9.03926 9.99239C9.20593 10.1226 9.33353 10.2528 9.42208 10.383C9.51062 10.5132 9.5627 10.6278 9.57833 10.7268L9.3127 11.008C9.33353 11.2736 9.3153 11.4768 9.25801 11.6174C9.20072 11.758 9.11218 11.8752 8.99239 11.969C8.8726 12.0627 8.73458 12.1408 8.57833 12.2033C8.42208 12.2658 8.2528 12.3544 8.07051 12.469C8.07051 12.5731 8.04447 12.6851 7.99239 12.8049C7.9403 12.9247 7.8752 13.0393 7.79708 13.1486C7.71895 13.258 7.6252 13.3492 7.51583 13.4221C7.40645 13.495 7.29708 13.5315 7.1877 13.5315L6.85958 13.2815C6.86999 13.2919 6.86999 13.3101 6.85958 13.3361C6.84916 13.3622 6.83614 13.3674 6.82051 13.3518C6.8726 13.4507 6.88562 13.5653 6.85958 13.6955C6.83353 13.8257 6.78926 13.9585 6.72676 14.094C6.66426 14.2294 6.59395 14.357 6.51583 14.4768C6.4377 14.5966 6.36739 14.6981 6.30489 14.7815C6.58614 14.8544 6.86739 14.9091 7.14864 14.9455C7.42989 14.982 7.71374 15.0002 8.0002 15.0002Z" fill="#4E4E4E"/>
</svg>
