<svg width="16" height="18" viewBox="0 0 16 18" fill="none" xmlns="http://www.w3.org/2000/svg">
<path d="M12.0004 7.28558V5.57129C12.0004 4.51042 11.579 3.49301 10.8288 2.74286C10.0787 1.99272 9.06128 1.57129 8.00042 1.57129C6.93955 1.57129 5.92214 1.99272 5.17199 2.74286C4.42185 3.49301 4.00042 4.51042 4.00042 5.57129V7.28558M12.5718 7.28558H3.42899C3.12589 7.28558 2.8352 7.40598 2.62087 7.62031C2.40654 7.83464 2.28613 8.12533 2.28613 8.42843V15.2856C2.28613 15.5887 2.40654 15.8794 2.62087 16.0937C2.8352 16.308 3.12589 16.4284 3.42899 16.4284H12.5718C12.875 16.4284 13.1656 16.308 13.38 16.0937C13.5943 15.8794 13.7147 15.5887 13.7147 15.2856V8.42843C13.7147 8.12533 13.5943 7.83464 13.38 7.62031C13.1656 7.40598 12.875 7.28558 12.5718 7.28558Z" stroke="#4E4E4E" stroke-width="1.5" stroke-linecap="round" stroke-linejoin="round"/>
<path d="M8.00014 12.428C8.15169 12.428 8.29704 12.3678 8.4042 12.2606C8.51136 12.1535 8.57157 12.0081 8.57157 11.8566C8.57157 11.705 8.51136 11.5597 8.4042 11.4525C8.29704 11.3454 8.15169 11.2852 8.00014 11.2852C7.84859 11.2852 7.70324 11.3454 7.59608 11.4525C7.48891 11.5597 7.42871 11.705 7.42871 11.8566C7.42871 12.0081 7.48891 12.1535 7.59608 12.2606C7.70324 12.3678 7.84859 12.428 8.00014 12.428Z" stroke="#4E4E4E" stroke-width="1.5" stroke-linecap="round" stroke-linejoin="round"/>
</svg>
