<svg width="41" height="41" viewBox="0 0 41 41" fill="none" xmlns="http://www.w3.org/2000/svg">
<rect x="0.5" y="0.511353" width="40" height="40" rx="20" fill="white"/>
<path d="M20.5 3.01135C15.8761 3.06746 11.4575 4.92921 8.18766 8.19902C4.91786 11.4688 3.0561 15.8875 3 20.5114C3.0561 25.1352 4.91786 29.5539 8.18766 32.8237C11.4575 36.0935 15.8761 37.9552 20.5 38.0114C25.1239 37.9552 29.5425 36.0935 32.8123 32.8237C36.0821 29.5539 37.9439 25.1352 38 20.5114C37.9439 15.8875 36.0821 11.4688 32.8123 8.19902C29.5425 4.92921 25.1239 3.06746 20.5 3.01135ZM30.5 21.7614H21.75V30.5114H19.25V21.7614H10.5V19.2614H19.25V10.5114H21.75V19.2614H30.5V21.7614Z" fill="#141414" fill-opacity="0.8"/>
</svg>
