<svg width="34" height="34" viewBox="0 0 34 34" fill="none" xmlns="http://www.w3.org/2000/svg">
<rect width="34" height="34" rx="17" fill="#D9D9D9"/>
<path d="M15.7477 11.5423C15.828 11.6708 15.8822 11.8139 15.9072 11.9633C15.9323 12.1127 15.9276 12.2657 15.8935 12.4133C15.8595 12.5609 15.7966 12.7004 15.7087 12.8238C15.6207 12.9472 15.5093 13.052 15.3808 13.1323C13.9757 14.0062 12.8599 15.2754 12.1731 16.7808C12.8676 16.7227 13.5634 16.8756 14.1696 17.2195C14.7757 17.5634 15.264 18.0822 15.5704 18.7081C15.8769 19.334 15.9873 20.0378 15.8872 20.7275C15.7871 21.4172 15.4811 22.0606 15.0093 22.5736C14.5376 23.0865 13.9219 23.4451 13.243 23.6024C12.5641 23.7598 11.8535 23.7085 11.2042 23.4554C10.5549 23.2022 9.99711 22.759 9.60383 22.1837C9.21056 21.6083 9.0001 20.9277 9 20.2308V20.1996C9.0009 20.1103 9.00475 20.021 9.01154 19.9319C9.02192 19.7588 9.04269 19.5165 9.08308 19.2188C9.16385 18.6269 9.32192 17.8112 9.64154 16.895C10.2785 15.0604 11.5685 12.7931 14.1577 11.1754C14.2862 11.0951 14.4292 11.0409 14.5787 11.0158C14.7281 10.9908 14.881 10.9955 15.0287 11.0295C15.1763 11.0636 15.3158 11.1264 15.4392 11.2144C15.5626 11.3024 15.6674 11.4138 15.7477 11.5423ZM23.8246 11.5423C23.9049 11.6708 23.9591 11.8139 23.9842 11.9633C24.0092 12.1127 24.0045 12.2657 23.9705 12.4133C23.9364 12.5609 23.8736 12.7004 23.7856 12.8238C23.6976 12.9472 23.5862 13.052 23.4577 13.1323C22.0526 14.0061 20.9367 15.2753 20.25 16.7808C20.9445 16.7227 21.6403 16.8756 22.2465 17.2195C22.8526 17.5634 23.3409 18.0822 23.6474 18.7081C23.9538 19.334 24.0642 20.0378 23.9641 20.7275C23.864 21.4172 23.558 22.0606 23.0863 22.5736C22.6145 23.0865 21.9989 23.4451 21.3199 23.6024C20.641 23.7598 19.9304 23.7085 19.2811 23.4554C18.6318 23.2022 18.074 22.759 17.6808 22.1837C17.2875 21.6083 17.077 20.9277 17.0769 20.2308V20.1996C17.0778 20.1103 17.0817 20.021 17.0885 19.9319C17.0988 19.7588 17.1196 19.5165 17.16 19.2188C17.2408 18.6269 17.3988 17.8112 17.7185 16.895C18.3554 15.0604 19.6454 12.7931 22.2346 11.1754C22.3631 11.0951 22.5062 11.0409 22.6556 11.0158C22.805 10.9908 22.958 10.9955 23.1056 11.0295C23.2533 11.0636 23.3927 11.1264 23.5161 11.2144C23.6395 11.3024 23.7443 11.4138 23.8246 11.5423Z" fill="#141414" fill-opacity="0.8"/>
</svg>
